<svg
  xmlns="http://www.w3.org/2000/svg"
  width="20"
  height="20"
  viewBox="0 0 533.5 544.3"
  className="inline-block mr-2"
>
  <path
    fill="#4285F4"
    d="M533.5 278.4c0-17.5-1.4-35-4.3-52.1H272v98.7h146.9c-6.4 34.3-25.3 63.3-53.8 82.9v68h86.9c51-47 81.5-116.2 81.5-197.5z"
  />
  <path
    fill="#34A853"
    d="M272 544.3c72.6 0 133.6-24 178.2-65.3l-86.9-68c-24.1 16.2-55 25.9-91.3 25.9-70 0-129.2-47.2-150.4-110.3H31.2v69.3C75.4 482 167.8 544.3 272 544.3z"
  />
  <path
    fill="#FBBC04"
    d="M121.6 326.6c-10.8-32.2-10.8-66.7 0-98.9v-69.3H31.2c-32.1 64.1-32.1 139.1 0 203.2l90.4-69z"
  />
  <path
    fill="#EA4335"
    d="M272 107.7c39.5-.6 77.3 13.9 106.4 39.6l79.3-79.3C405.7 23.4 340.9-1.2 272 0 167.8 0 75.4 62.3 31.2 162.1l90.4 69c21.2-63.1 80.4-110.3 150.4-110.3z"
  />
</svg>
